<svg width="20" height="20" viewBox="0 0 20 20" fill="none" xmlns="http://www.w3.org/2000/svg">
<g id="HandSoap">
<path id="Vector" d="M14.375 7.56287V6.875C14.3742 6.21219 14.1106 5.57675 13.6419 5.10807C13.1733 4.63939 12.5378 4.37576 11.875 4.375H10.625V2.5H13.125C13.2907 2.50019 13.4496 2.5661 13.5667 2.68327C13.6839 2.80044 13.7498 2.9593 13.75 3.125C13.75 3.29076 13.8158 3.44973 13.9331 3.56694C14.0503 3.68415 14.2092 3.75 14.375 3.75C14.5408 3.75 14.6997 3.68415 14.8169 3.56694C14.9342 3.44973 15 3.29076 15 3.125C14.9994 2.62789 14.8017 2.15131 14.4502 1.7998C14.0987 1.4483 13.6221 1.25057 13.125 1.25H8.125C7.95924 1.25 7.80027 1.31585 7.68306 1.43306C7.56585 1.55027 7.5 1.70924 7.5 1.875C7.5 2.04076 7.56585 2.19973 7.68306 2.31694C7.80027 2.43415 7.95924 2.5 8.125 2.5H9.375V4.375H8.125C7.46219 4.37576 6.82675 4.63939 6.35807 5.10807C5.88939 5.57675 5.62576 6.21219 5.625 6.875V7.56287C4.91967 7.70786 4.28589 8.0916 3.8305 8.64939C3.3751 9.20718 3.12594 9.90492 3.125 10.625V16.875C3.12538 17.2064 3.2572 17.5241 3.49154 17.7585C3.72587 17.9928 4.0436 18.1246 4.375 18.125H15.625C15.9564 18.1246 16.2741 17.9928 16.5085 17.7585C16.7428 17.5241 16.8746 17.2064 16.875 16.875V10.625C16.8741 9.90492 16.6249 9.20718 16.1695 8.64939C15.7141 8.0916 15.0803 7.70786 14.375 7.56287ZM8.125 5.625H11.875C12.2064 5.62538 12.5241 5.7572 12.7585 5.99154C12.9928 6.22587 13.1246 6.5436 13.125 6.875V7.5H6.875V6.875C6.87538 6.5436 7.0072 6.22587 7.24154 5.99154C7.47587 5.7572 7.7936 5.62538 8.125 5.625Z" fill="#6E59A4"/>
</g>
</svg>
