<svg width="13" height="13" viewBox="0 0 13 13" fill="none" xmlns="http://www.w3.org/2000/svg">
<g id="HandSoap">
<path id="Vector" d="M9.4375 5.01038V4.59766C9.43704 4.19997 9.27886 3.8187 8.99766 3.5375C8.71645 3.25629 8.33518 3.09811 7.9375 3.09766H7.1875V1.97266H8.6875C8.78692 1.97277 8.88224 2.01232 8.95254 2.08262C9.02284 2.15292 9.06239 2.24823 9.0625 2.34766C9.0625 2.44711 9.10201 2.5425 9.17233 2.61282C9.24266 2.68315 9.33804 2.72266 9.4375 2.72266C9.53696 2.72266 9.63234 2.68315 9.70266 2.61282C9.77299 2.5425 9.8125 2.44711 9.8125 2.34766C9.81216 2.04939 9.69352 1.76344 9.48262 1.55254C9.27171 1.34163 8.98576 1.223 8.6875 1.22266H5.6875C5.58804 1.22266 5.49266 1.26217 5.42233 1.33249C5.35201 1.40282 5.3125 1.4982 5.3125 1.59766C5.3125 1.69711 5.35201 1.7925 5.42233 1.86282C5.49266 1.93315 5.58804 1.97266 5.6875 1.97266H6.4375V3.09766H5.6875C5.28981 3.09811 4.90855 3.25629 4.62734 3.5375C4.34614 3.8187 4.18795 4.19997 4.1875 4.59766V5.01038C3.7643 5.09737 3.38404 5.32761 3.1108 5.66229C2.83756 5.99696 2.68806 6.41561 2.6875 6.84766V10.5977C2.68773 10.7965 2.76682 10.9871 2.90742 11.1277C3.04802 11.2683 3.23866 11.3474 3.4375 11.3477H10.1875C10.3863 11.3474 10.577 11.2683 10.7176 11.1277C10.8582 10.9871 10.9373 10.7965 10.9375 10.5977V6.84766C10.9369 6.41561 10.7874 5.99696 10.5142 5.66229C10.241 5.32761 9.8607 5.09737 9.4375 5.01038ZM5.6875 3.84766H7.9375C8.13634 3.84788 8.32698 3.92697 8.46758 4.06758C8.60818 4.20818 8.68727 4.39881 8.6875 4.59766V4.97266H4.9375V4.59766C4.93773 4.39881 5.01682 4.20818 5.15742 4.06758C5.29802 3.92697 5.48866 3.84788 5.6875 3.84766Z" fill="#FFBB47"/>
</g>
</svg>
