<svg width="32" height="32" viewBox="0 0 32 32" fill="none" xmlns="http://www.w3.org/2000/svg">
<g id="Package">
<path id="Vector" d="M28.7409 8.8521C28.7376 8.84599 28.7351 8.83977 28.7317 8.83372C28.7302 8.83116 28.7284 8.82884 28.7269 8.82628C28.5479 8.51917 28.2903 8.26536 27.9805 8.09105L16.9806 1.90355C16.6809 1.73626 16.3433 1.64844 16.0001 1.64844C15.6568 1.64844 15.3193 1.73626 15.0195 1.90355L4.0194 8.09111C3.70846 8.26624 3.45005 8.52141 3.27103 8.83013C3.2691 8.83348 3.26678 8.83653 3.26489 8.83995C3.26184 8.84539 3.25964 8.85106 3.25671 8.85655C3.08875 9.15505 3.00035 9.49171 3 9.83422V22.1645C3.00028 22.5194 3.09482 22.8677 3.27396 23.174C3.4531 23.4803 3.7104 23.7335 4.01953 23.9077L15.0197 30.0953C15.2967 30.2502 15.6068 30.3368 15.924 30.3479C15.9467 30.3497 15.9694 30.3518 15.9926 30.352H16.0016C16.0331 30.352 16.0641 30.3502 16.0949 30.3473C16.4057 30.3335 16.709 30.2472 16.9805 30.0952L27.9805 23.9077C28.2896 23.7335 28.5469 23.4804 28.7261 23.1741C28.9052 22.8678 28.9998 22.5194 29 22.1645V9.83422C28.9997 9.48999 28.9104 9.15168 28.7409 8.8521ZM16 3.64672L25.968 9.25372L22.1404 11.4282L12.055 5.86577L16 3.64672ZM16.1138 14.852L6.04736 9.2451L10.0048 7.01903L20.1005 12.5871L16.1138 14.852ZM17.0152 27.781L17.1136 16.5843L21.1278 14.3037V19.0632C21.1278 19.3284 21.2332 19.5828 21.4207 19.7703C21.6082 19.9579 21.8626 20.0632 22.1278 20.0632C22.393 20.0632 22.6474 19.9579 22.8349 19.7703C23.0224 19.5828 23.1278 19.3284 23.1278 19.0632V13.1675L27 10.9676V22.1645L17.0152 27.781Z" fill="#FFBB47"/>
</g>
</svg>
