<svg width="32" height="32" viewBox="0 0 32 32" fill="none" xmlns="http://www.w3.org/2000/svg">
<g id="Tag">
<path id="Vector" d="M29.9997 15.8576L16.9432 2.80112C16.7107 2.56791 16.424 2.3959 16.1087 2.30045C15.7935 2.20501 15.4596 2.18909 15.1367 2.25412L5.05479 4.27047C4.86123 4.30924 4.68346 4.4044 4.54387 4.54399C4.40429 4.68357 4.30912 4.86134 4.27036 5.0549L2.25401 15.1368C2.18909 15.4597 2.20507 15.7936 2.30051 16.1088C2.39595 16.424 2.56789 16.7107 2.80101 16.9433L15.8574 29.9997C16.0431 30.1855 16.2636 30.3328 16.5063 30.4334C16.7489 30.5339 17.009 30.5857 17.2717 30.5857C17.5343 30.5857 17.7944 30.5339 18.0371 30.4334C18.2798 30.3329 18.5003 30.1856 18.686 29.9998L29.9996 18.6863C30.1854 18.5005 30.3327 18.2801 30.4333 18.0374C30.5338 17.7947 30.5855 17.5346 30.5855 17.272C30.5856 17.0093 30.5338 16.7492 30.4333 16.5065C30.3328 16.2639 30.1855 16.0434 29.9997 15.8576ZM10.499 11.9998C10.2023 11.9998 9.91232 11.9119 9.66565 11.7471C9.41897 11.5822 9.22671 11.348 9.11318 11.0739C8.99965 10.7998 8.96995 10.4982 9.02782 10.2072C9.0857 9.91624 9.22856 9.64897 9.43834 9.43919C9.64812 9.22941 9.91539 9.08655 10.2064 9.02867C10.4973 8.97079 10.7989 9.0005 11.073 9.11403C11.3471 9.22756 11.5814 9.41982 11.7462 9.66649C11.911 9.91317 11.999 10.2032 11.999 10.4998C11.999 10.8977 11.841 11.2792 11.5597 11.5605C11.2784 11.8418 10.8968 11.9998 10.499 11.9998Z" fill="#FFBB47"/>
</g>
</svg>
