<svg width="21" height="21" viewBox="0 0 21 21" fill="none" xmlns="http://www.w3.org/2000/svg">
<g id="TiktokLogo" opacity="0.5">
<path id="Vector" d="M19.0312 6.89062V10.1719C19.0313 10.2581 19.0143 10.3434 18.9813 10.423C18.9483 10.5026 18.9 10.575 18.839 10.6359C18.7781 10.6969 18.7058 10.7452 18.6261 10.7782C18.5465 10.8112 18.4612 10.8281 18.375 10.8281C17.0041 10.8311 15.653 10.5016 14.4375 9.86774L14.4375 12.7969C14.4373 13.9829 14.0989 15.1442 13.4619 16.1446C12.8248 17.1449 11.9157 17.9429 10.8411 18.4447C9.76655 18.9465 8.57113 19.1314 7.39515 18.9777C6.21918 18.824 5.11144 18.3381 4.20194 17.5769C3.29244 16.8158 2.61891 15.811 2.26041 14.6805C1.90191 13.55 1.8733 12.3407 2.17794 11.1945C2.48258 10.0483 3.10783 9.01283 3.98032 8.20952C4.8528 7.4062 5.93632 6.86842 7.10371 6.65927C7.19815 6.64245 7.29512 6.64654 7.38781 6.67125C7.48049 6.69595 7.56664 6.74068 7.64017 6.80227C7.7137 6.86387 7.77284 6.94083 7.81341 7.02775C7.85398 7.11467 7.87501 7.20943 7.875 7.30535L7.87496 10.7211C7.87497 10.8452 7.83977 10.9668 7.77346 11.0717C7.70715 11.1766 7.61244 11.2606 7.50033 11.3138C7.23495 11.4396 7.00817 11.6342 6.84367 11.8775C6.67916 12.1207 6.58296 12.4037 6.56509 12.6968C6.54723 12.9899 6.60835 13.2825 6.74209 13.5439C6.87583 13.8054 7.07729 14.0261 7.32543 14.1832C7.57358 14.3402 7.85932 14.4278 8.15285 14.4367C8.44638 14.4457 8.73693 14.3757 8.99419 14.2341C9.25145 14.0925 9.46599 13.8844 9.61543 13.6316C9.76486 13.3788 9.84371 13.0905 9.84375 12.7969V2.29688C9.84375 2.21069 9.86072 2.12536 9.8937 2.04574C9.92668 1.96612 9.97502 1.89377 10.036 1.83283C10.0969 1.77189 10.1692 1.72355 10.2489 1.69057C10.3285 1.6576 10.4138 1.64062 10.5 1.64063H13.7812C13.8674 1.64062 13.9528 1.6576 14.0324 1.69057C14.112 1.72355 14.1844 1.77189 14.2453 1.83283C14.3062 1.89377 14.3546 1.96612 14.3876 2.04574C14.4205 2.12536 14.4375 2.21069 14.4375 2.29688C14.4387 3.3408 14.8539 4.34164 15.5921 5.0798C16.3302 5.81797 17.3311 6.23319 18.375 6.23438C18.4612 6.23437 18.5465 6.25135 18.6261 6.28432C18.7058 6.3173 18.7781 6.36564 18.839 6.42658C18.9 6.48752 18.9483 6.55987 18.9813 6.63949C19.0143 6.71911 19.0313 6.80444 19.0312 6.89062Z" fill="white"/>
</g>
</svg>
