<svg width="21" height="21" viewBox="0 0 21 21" fill="none" xmlns="http://www.w3.org/2000/svg">
<g id="TwitterLogo" opacity="0.5">
<path id="Vector" d="M20.1512 6.37007L17.6768 8.84451C17.1828 14.5769 12.3485 19.031 6.56216 19.031C5.37071 19.031 4.38881 18.8421 3.64368 18.4696C3.04235 18.1689 2.79601 17.8462 2.73489 17.7544C2.68006 17.6722 2.64451 17.5786 2.63091 17.4807C2.61731 17.3828 2.62601 17.283 2.65635 17.189C2.6867 17.0949 2.7379 17.0089 2.80615 16.9374C2.8744 16.8658 2.95792 16.8107 3.05048 16.7759C3.07159 16.768 5.00677 16.0247 6.25751 14.6096C5.47955 14.0556 4.79484 13.3812 4.22916 12.6117C3.10467 11.0857 1.91538 8.43543 2.63524 4.47614C2.65666 4.35831 2.70992 4.24859 2.78925 4.15887C2.86857 4.06914 2.97094 4.00283 3.08525 3.96713C3.19957 3.93142 3.32148 3.92768 3.43777 3.9563C3.55406 3.98492 3.6603 4.04482 3.74498 4.12951C3.7739 4.15835 6.50468 6.85056 9.84297 7.72018L9.84341 7.21822C9.85048 6.16751 10.2745 5.1626 11.0222 4.42437C11.7699 3.68613 12.7801 3.275 13.8308 3.28132C14.5134 3.29077 15.1819 3.47711 15.7709 3.82212C16.3599 4.16713 16.8494 4.65902 17.1915 5.24975L19.6872 5.24979C19.817 5.24979 19.9438 5.28828 20.0518 5.36039C20.1597 5.43249 20.2438 5.53498 20.2935 5.65489C20.3431 5.77481 20.3561 5.90675 20.3308 6.03405C20.3055 6.16135 20.243 6.27829 20.1512 6.37007Z" fill="white"/>
</g>
</svg>
