<svg width="32" height="35" viewBox="0 0 32 35" fill="none" xmlns="http://www.w3.org/2000/svg">
<g id="User">
<path id="Vector" d="M28.9914 28.4658C27.1255 25.0135 24.1373 22.4241 20.6014 21.1956C22.2954 20.1129 23.6115 18.4627 24.3479 16.4986C25.0842 14.5344 25.1999 12.3649 24.6772 10.3233C24.1546 8.28168 23.0225 6.48083 21.4548 5.19735C19.8871 3.91387 17.9705 3.21875 15.9994 3.21875C14.0283 3.21875 12.1117 3.91387 10.544 5.19735C8.97632 6.48083 7.8442 8.28168 7.32154 10.3233C6.79889 12.3649 6.9146 14.5344 7.65092 16.4986C8.38723 18.4627 9.70342 20.1129 11.3973 21.1956C7.86159 22.4241 4.87344 25.0134 3.0075 28.4656C2.91954 28.6289 2.87317 28.8142 2.87305 29.0028C2.87292 29.1915 2.91905 29.3768 3.00678 29.5403C3.09452 29.7037 3.22077 29.8394 3.37284 29.9338C3.5249 30.0281 3.69742 30.0778 3.87304 30.0778L28.1259 30.0781C28.3015 30.0781 28.4741 30.0284 28.6261 29.934C28.7782 29.8397 28.9045 29.704 28.9922 29.5405C29.0799 29.3771 29.1261 29.1917 29.1259 29.0031C29.1258 28.8144 29.0794 28.6291 28.9915 28.4659L28.9914 28.4658Z" fill="#F3B411"/>
</g>
</svg>
