<svg width="17" height="17" viewBox="0 0 17 17" fill="none" xmlns="http://www.w3.org/2000/svg">
<path id="Vector" d="M8.125 0C6.51803 0 4.94714 0.495824 3.61099 1.42477C2.27485 2.35372 1.23344 3.67407 0.618482 5.21886C0.00352044 6.76364 -0.157382 8.46348 0.156123 10.1034C0.469628 11.7433 1.24346 13.2497 2.37976 14.4321C3.51606 15.6144 4.9638 16.4196 6.53989 16.7458C8.11599 17.072 9.74965 16.9045 11.2343 16.2647C12.719 15.6248 13.9879 14.5412 14.8807 13.1509C15.7735 11.7607 16.25 10.1262 16.25 8.4541C16.2475 6.21273 15.3907 4.0639 13.8675 2.47901C12.3443 0.89412 10.2791 0.00259054 8.125 0ZM11.9946 6.97374L7.41089 11.526C7.29435 11.6413 7.13963 11.7057 6.97876 11.7057C6.81789 11.7057 6.66318 11.6413 6.54663 11.526L4.25537 9.24985C4.13567 9.13054 4.06637 8.96667 4.0627 8.79423C4.05903 8.6218 4.12129 8.4549 4.23581 8.3302C4.35032 8.20549 4.50772 8.13318 4.67344 8.12914C4.83915 8.12511 4.99964 8.18968 5.11963 8.30867L6.97876 10.1561L11.1304 6.03256C11.2504 5.91357 11.4108 5.849 11.5766 5.85304C11.7423 5.85707 11.8997 5.92939 12.0142 6.05409C12.1287 6.1788 12.191 6.3457 12.1873 6.51813C12.1836 6.69056 12.1143 6.85443 11.9946 6.97374Z" fill="#F3B411"/>
</svg>
