<svg width="28" height="32" viewBox="0 0 28 32" fill="none" xmlns="http://www.w3.org/2000/svg">
<path id="&#226;&#128;&#156;" opacity="0.5" d="M6.81579 31.7907C3.89912 32.4186 1.90351 31.6337 0.828947 29.4358C-0.0921053 27.0809 -0.245614 24.0981 0.368421 20.4873C0.982456 16.8765 2.36404 13.1872 4.51316 9.41946C6.66228 5.49469 9.50219 2.35487 13.0329 0C13.4934 0 13.7237 0 13.7237 0C12.0351 2.19788 10.7303 4.31726 9.80921 6.35813C8.88816 8.24203 8.42763 10.4399 8.42763 12.9518C8.42763 14.6787 8.65789 16.5626 9.11842 18.6034C9.73246 20.4873 10.1162 22.3712 10.2697 24.2551C10.5768 25.982 10.5 27.5519 10.0395 28.9648C9.73245 30.3778 8.65789 31.3197 6.81579 31.7907ZM21.0921 31.7907C18.1754 32.4186 16.1798 31.6337 15.1053 29.4358C14.1842 27.0809 14.0307 24.0981 14.6447 20.4873C15.2588 16.8765 16.6403 13.1872 18.7895 9.41946C21.0921 5.49469 23.932 2.35487 27.3092 0C27.7697 0 28 0 28 0C26.3114 2.19788 25.0066 4.31726 24.0855 6.35813C23.1645 8.24203 22.7039 10.4399 22.7039 12.9518C22.7039 14.6787 22.9342 16.5626 23.3947 18.6034C24.0088 20.4873 24.3925 22.3712 24.5461 24.2551C24.8531 25.982 24.7763 27.5519 24.3158 28.9648C24.0088 30.3778 22.9342 31.3197 21.0921 31.7907Z" fill="#C0B5DE"/>
</svg>
